<svg xmlns="http://www.w3.org/2000/svg" viewBox="0 0 1080 1920">
  <rect width="1080" height="1920" fill="#f8fafc"/>
  <rect x="0" y="0" width="1080" height="200" fill="#2563eb"/>
  <text x="540" y="120" font-family="sans-serif" font-size="64" font-weight="bold" fill="#ffffff" text-anchor="middle">Salary Calculator Pro</text>
  
  <rect x="100" y="300" width="880" height="400" rx="40" fill="#ffffff" stroke="#e2e8f0" stroke-width="4"/>
  <rect x="150" y="380" width="400" height="60" rx="16" fill="#e2e8f0"/>
  <rect x="150" y="480" width="780" height="80" rx="16" fill="#f1f5f9"/>
  <rect x="150" y="580" width="780" height="80" rx="16" fill="#f1f5f9"/>
  
  <rect x="100" y="750" width="880" height="600" rx="40" fill="#ffffff" stroke="#e2e8f0" stroke-width="4"/>
  <rect x="150" y="830" width="400" height="60" rx="16" fill="#e2e8f0"/>
  <rect x="150" y="930" width="780" height="80" rx="16" fill="#f1f5f9"/>
  <rect x="150" y="1050" width="780" height="80" rx="16" fill="#f1f5f9"/>
  <rect x="150" y="1170" width="780" height="80" rx="16" fill="#f1f5f9"/>
  
  <rect x="100" y="1400" width="880" height="160" rx="80" fill="#2563eb"/>
  <text x="540" y="1500" font-family="sans-serif" font-size="56" font-weight="bold" fill="#ffffff" text-anchor="middle">Calculate Salary</text>
</svg>
